<svg id="visual" viewBox="0 0 900 600" width="900" height="600" xmlns="http://www.w3.org/2000/svg" xmlns:xlink="http://www.w3.org/1999/xlink" version="1.1"><rect x="0" y="0" width="900" height="600" fill="#fff5ec"></rect><path d="M694 600L679.2 592.8C664.3 585.7 634.7 571.3 624.7 557C614.7 542.7 624.3 528.3 628.7 514C633 499.7 632 485.3 620.8 471.2C609.7 457 588.3 443 599.5 428.8C610.7 414.7 654.3 400.3 671 386C687.7 371.7 677.3 357.3 666 343C654.7 328.7 642.3 314.3 637 300C631.7 285.7 633.3 271.3 644.3 257C655.3 242.7 675.7 228.3 671.8 214C668 199.7 640 185.3 635 171.2C630 157 648 143 664.2 128.8C680.3 114.7 694.7 100.3 681.2 86C667.7 71.7 626.3 57.3 608.3 43C590.3 28.7 595.7 14.3 598.3 7.2L601 0L900 0L900 7.2C900 14.3 900 28.7 900 43C900 57.3 900 71.7 900 86C900 100.3 900 114.7 900 128.8C900 143 900 157 900 171.2C900 185.3 900 199.7 900 214C900 228.3 900 242.7 900 257C900 271.3 900 285.7 900 300C900 314.3 900 328.7 900 343C900 357.3 900 371.7 900 386C900 400.3 900 414.7 900 428.8C900 443 900 457 900 471.2C900 485.3 900 499.7 900 514C900 528.3 900 542.7 900 557C900 571.3 900 585.7 900 592.8L900 600Z" fill="#ff7e32" stroke-linecap="round" stroke-linejoin="miter"></path></svg>