<svg id="visual" viewBox="0 0 900 450" width="900" height="450" xmlns="http://www.w3.org/2000/svg" xmlns:xlink="http://www.w3.org/1999/xlink" version="1.1"><rect x="0" y="0" width="900" height="450" fill="#fff"></rect><path d="M0 385L25 378.2C50 371.3 100 357.7 150 356.5C200 355.3 250 366.7 300 370C350 373.3 400 368.7 450 370.2C500 371.7 550 379.3 600 378.3C650 377.3 700 367.7 750 361.7C800 355.7 850 353.3 875 352.2L900 351L900 451L875 451C850 451 800 451 750 451C700 451 650 451 600 451C550 451 500 451 450 451C400 451 350 451 300 451C250 451 200 451 150 451C100 451 50 451 25 451L0 451Z" fill="#ff5b0a"></path><path d="M0 396L25 399.7C50 403.3 100 410.7 150 411.8C200 413 250 408 300 403.3C350 398.7 400 394.3 450 394.2C500 394 550 398 600 397C650 396 700 390 750 387.7C800 385.3 850 386.7 875 387.3L900 388L900 451L875 451C850 451 800 451 750 451C700 451 650 451 600 451C550 451 500 451 450 451C400 451 350 451 300 451C250 451 200 451 150 451C100 451 50 451 25 451L0 451Z" fill="#cc2b02"></path></svg>